ISO-10303-21;
HEADER;
/* Generated by software containing ST-Developer
 * from STEP Tools, Inc. (www.steptools.com) 
 */

FILE_DESCRIPTION(
/* description */ (''),
/* implementation_level */ '2;1');

FILE_NAME(
/* name */ 'Body 5 of macropad v2.step',
/* time_stamp */ '2026-04-26T17:07:54+10:00',
/* author */ (''),
/* organization */ (''),
/* preprocessor_version */ 'ST-DEVELOPER v20.1',
/* originating_system */ 'Autodesk Translation Framework v15.8.0.0',
/* authorisation */ '');

FILE_SCHEMA (('AUTOMOTIVE_DESIGN { 1 0 10303 214 3 1 1 }'));
ENDSEC;

DATA;
#10=MECHANICAL_DESIGN_GEOMETRIC_PRESENTATION_REPRESENTATION('',(#13),#617);
#11=SHAPE_REPRESENTATION_RELATIONSHIP('SRR','None',#623,#12);
#12=ADVANCED_BREP_SHAPE_REPRESENTATION('',(#14),#616);
#13=STYLED_ITEM('',(#632),#14);
#14=MANIFOLD_SOLID_BREP('Body11',#361);
#15=FACE_BOUND('',#145,.T.);
#16=PLANE('',#391);
#17=PLANE('',#392);
#18=PLANE('',#393);
#19=PLANE('',#394);
#20=PLANE('',#395);
#21=PLANE('',#396);
#22=PLANE('',#397);
#23=PLANE('',#398);
#24=PLANE('',#399);
#25=PLANE('',#400);
#26=PLANE('',#401);
#27=LINE('',#526,#59);
#28=LINE('',#527,#60);
#29=LINE('',#539,#61);
#30=LINE('',#540,#62);
#31=LINE('',#552,#63);
#32=LINE('',#553,#64);
#33=LINE('',#555,#65);
#34=LINE('',#556,#66);
#35=LINE('',#568,#67);
#36=LINE('',#569,#68);
#37=LINE('',#571,#69);
#38=LINE('',#572,#70);
#39=LINE('',#574,#71);
#40=LINE('',#575,#72);
#41=LINE('',#577,#73);
#42=LINE('',#578,#74);
#43=LINE('',#580,#75);
#44=LINE('',#582,#76);
#45=LINE('',#587,#77);
#46=LINE('',#589,#78);
#47=LINE('',#591,#79);
#48=LINE('',#592,#80);
#49=LINE('',#596,#81);
#50=LINE('',#597,#82);
#51=LINE('',#598,#83);
#52=LINE('',#601,#84);
#53=LINE('',#602,#85);
#54=LINE('',#605,#86);
#55=LINE('',#606,#87);
#56=LINE('',#608,#88);
#57=LINE('',#610,#89);
#58=LINE('',#612,#90);
#59=VECTOR('',#416,10.);
#60=VECTOR('',#417,10.);
#61=VECTOR('',#430,10.);
#62=VECTOR('',#431,10.);
#63=VECTOR('',#444,10.);
#64=VECTOR('',#445,10.);
#65=VECTOR('',#448,10.);
#66=VECTOR('',#449,10.);
#67=VECTOR('',#462,10.);
#68=VECTOR('',#463,10.);
#69=VECTOR('',#466,10.);
#70=VECTOR('',#467,10.);
#71=VECTOR('',#470,10.);
#72=VECTOR('',#471,10.);
#73=VECTOR('',#474,10.);
#74=VECTOR('',#475,10.);
#75=VECTOR('',#478,10.);
#76=VECTOR('',#481,10.);
#77=VECTOR('',#486,10.);
#78=VECTOR('',#487,10.);
#79=VECTOR('',#488,10.);
#80=VECTOR('',#489,10.);
#81=VECTOR('',#492,10.);
#82=VECTOR('',#493,10.);
#83=VECTOR('',#494,10.);
#84=VECTOR('',#497,10.);
#85=VECTOR('',#498,10.);
#86=VECTOR('',#501,10.);
#87=VECTOR('',#502,10.);
#88=VECTOR('',#505,10.);
#89=VECTOR('',#508,10.);
#90=VECTOR('',#511,10.);
#91=CYLINDRICAL_SURFACE('',#367,2.);
#92=CYLINDRICAL_SURFACE('',#373,2.);
#93=CYLINDRICAL_SURFACE('',#379,2.);
#94=CYLINDRICAL_SURFACE('',#381,2.);
#95=CYLINDRICAL_SURFACE('',#386,2.);
#96=CYLINDRICAL_SURFACE('',#388,2.);
#97=CYLINDRICAL_SURFACE('',#389,2.);
#98=CYLINDRICAL_SURFACE('',#390,2.);
#99=FACE_OUTER_BOUND('',#122,.T.);
#100=FACE_OUTER_BOUND('',#123,.T.);
#101=FACE_OUTER_BOUND('',#124,.T.);
#102=FACE_OUTER_BOUND('',#125,.T.);
#103=FACE_OUTER_BOUND('',#126,.T.);
#104=FACE_OUTER_BOUND('',#127,.T.);
#105=FACE_OUTER_BOUND('',#128,.T.);
#106=FACE_OUTER_BOUND('',#129,.T.);
#107=FACE_OUTER_BOUND('',#130,.T.);
#108=FACE_OUTER_BOUND('',#131,.T.);
#109=FACE_OUTER_BOUND('',#132,.T.);
#110=FACE_OUTER_BOUND('',#133,.T.);
#111=FACE_OUTER_BOUND('',#134,.T.);
#112=FACE_OUTER_BOUND('',#135,.T.);
#113=FACE_OUTER_BOUND('',#136,.T.);
#114=FACE_OUTER_BOUND('',#137,.T.);
#115=FACE_OUTER_BOUND('',#138,.T.);
#116=FACE_OUTER_BOUND('',#139,.T.);
#117=FACE_OUTER_BOUND('',#140,.T.);
#118=FACE_OUTER_BOUND('',#141,.T.);
#119=FACE_OUTER_BOUND('',#142,.T.);
#120=FACE_OUTER_BOUND('',#143,.T.);
#121=FACE_OUTER_BOUND('',#144,.T.);
#122=EDGE_LOOP('',(#238,#239,#240));
#123=EDGE_LOOP('',(#241,#242,#243,#244));
#124=EDGE_LOOP('',(#245,#246,#247));
#125=EDGE_LOOP('',(#248,#249,#250,#251));
#126=EDGE_LOOP('',(#252,#253,#254));
#127=EDGE_LOOP('',(#255,#256,#257,#258));
#128=EDGE_LOOP('',(#259,#260,#261,#262));
#129=EDGE_LOOP('',(#263,#264,#265));
#130=EDGE_LOOP('',(#266,#267,#268,#269));
#131=EDGE_LOOP('',(#270,#271,#272,#273));
#132=EDGE_LOOP('',(#274,#275,#276,#277));
#133=EDGE_LOOP('',(#278,#279,#280,#281));
#134=EDGE_LOOP('',(#282,#283,#284,#285));
#135=EDGE_LOOP('',(#286,#287,#288,#289));
#136=EDGE_LOOP('',(#290,#291,#292,#293));
#137=EDGE_LOOP('',(#294,#295,#296,#297));
#138=EDGE_LOOP('',(#298,#299,#300,#301));
#139=EDGE_LOOP('',(#302,#303,#304,#305));
#140=EDGE_LOOP('',(#306,#307,#308,#309));
#141=EDGE_LOOP('',(#310,#311,#312,#313));
#142=EDGE_LOOP('',(#314,#315,#316,#317));
#143=EDGE_LOOP('',(#318,#319,#320,#321));
#144=EDGE_LOOP('',(#322,#323,#324,#325,#326,#327,#328,#329));
#145=EDGE_LOOP('',(#330,#331,#332,#333));
#146=CIRCLE('',#364,1.99999999999999);
#147=CIRCLE('',#365,1.99999999999999);
#148=CIRCLE('',#366,2.);
#149=CIRCLE('',#368,2.);
#150=CIRCLE('',#370,1.99999999999999);
#151=CIRCLE('',#371,1.99999999999999);
#152=CIRCLE('',#372,2.);
#153=CIRCLE('',#374,2.);
#154=CIRCLE('',#376,2.);
#155=CIRCLE('',#377,1.99999999999999);
#156=CIRCLE('',#378,2.);
#157=CIRCLE('',#380,2.);
#158=CIRCLE('',#383,1.99999999999999);
#159=CIRCLE('',#384,2.);
#160=CIRCLE('',#385,2.);
#161=CIRCLE('',#387,2.);
#162=VERTEX_POINT('',#516);
#163=VERTEX_POINT('',#517);
#164=VERTEX_POINT('',#519);
#165=VERTEX_POINT('',#523);
#166=VERTEX_POINT('',#524);
#167=VERTEX_POINT('',#529);
#168=VERTEX_POINT('',#530);
#169=VERTEX_POINT('',#532);
#170=VERTEX_POINT('',#536);
#171=VERTEX_POINT('',#537);
#172=VERTEX_POINT('',#542);
#173=VERTEX_POINT('',#543);
#174=VERTEX_POINT('',#545);
#175=VERTEX_POINT('',#549);
#176=VERTEX_POINT('',#550);
#177=VERTEX_POINT('',#558);
#178=VERTEX_POINT('',#559);
#179=VERTEX_POINT('',#561);
#180=VERTEX_POINT('',#565);
#181=VERTEX_POINT('',#566);
#182=VERTEX_POINT('',#585);
#183=VERTEX_POINT('',#586);
#184=VERTEX_POINT('',#588);
#185=VERTEX_POINT('',#590);
#186=VERTEX_POINT('',#594);
#187=VERTEX_POINT('',#595);
#188=VERTEX_POINT('',#600);
#189=VERTEX_POINT('',#604);
#190=EDGE_CURVE('',#162,#163,#146,.F.);
#191=EDGE_CURVE('',#164,#162,#147,.F.);
#192=EDGE_CURVE('',#163,#164,#148,.F.);
#193=EDGE_CURVE('',#165,#166,#149,.T.);
#194=EDGE_CURVE('',#166,#164,#27,.T.);
#195=EDGE_CURVE('',#162,#165,#28,.T.);
#196=EDGE_CURVE('',#167,#168,#150,.F.);
#197=EDGE_CURVE('',#169,#167,#151,.F.);
#198=EDGE_CURVE('',#168,#169,#152,.F.);
#199=EDGE_CURVE('',#170,#171,#153,.T.);
#200=EDGE_CURVE('',#171,#169,#29,.T.);
#201=EDGE_CURVE('',#167,#170,#30,.T.);
#202=EDGE_CURVE('',#172,#173,#154,.F.);
#203=EDGE_CURVE('',#174,#172,#155,.F.);
#204=EDGE_CURVE('',#173,#174,#156,.F.);
#205=EDGE_CURVE('',#175,#176,#157,.T.);
#206=EDGE_CURVE('',#176,#174,#31,.T.);
#207=EDGE_CURVE('',#172,#175,#32,.T.);
#208=EDGE_CURVE('',#163,#173,#33,.T.);
#209=EDGE_CURVE('',#174,#162,#34,.T.);
#210=EDGE_CURVE('',#177,#178,#158,.F.);
#211=EDGE_CURVE('',#179,#177,#159,.F.);
#212=EDGE_CURVE('',#178,#179,#160,.F.);
#213=EDGE_CURVE('',#180,#181,#161,.T.);
#214=EDGE_CURVE('',#181,#179,#35,.T.);
#215=EDGE_CURVE('',#177,#180,#36,.T.);
#216=EDGE_CURVE('',#173,#178,#37,.T.);
#217=EDGE_CURVE('',#179,#172,#38,.T.);
#218=EDGE_CURVE('',#178,#168,#39,.T.);
#219=EDGE_CURVE('',#169,#177,#40,.T.);
#220=EDGE_CURVE('',#168,#163,#41,.T.);
#221=EDGE_CURVE('',#164,#167,#42,.T.);
#222=EDGE_CURVE('',#165,#176,#43,.T.);
#223=EDGE_CURVE('',#175,#181,#44,.T.);
#224=EDGE_CURVE('',#182,#183,#45,.T.);
#225=EDGE_CURVE('',#183,#184,#46,.T.);
#226=EDGE_CURVE('',#184,#185,#47,.T.);
#227=EDGE_CURVE('',#185,#182,#48,.T.);
#228=EDGE_CURVE('',#186,#187,#49,.T.);
#229=EDGE_CURVE('',#187,#183,#50,.T.);
#230=EDGE_CURVE('',#186,#182,#51,.T.);
#231=EDGE_CURVE('',#188,#186,#52,.T.);
#232=EDGE_CURVE('',#188,#185,#53,.T.);
#233=EDGE_CURVE('',#189,#188,#54,.T.);
#234=EDGE_CURVE('',#189,#184,#55,.T.);
#235=EDGE_CURVE('',#187,#189,#56,.T.);
#236=EDGE_CURVE('',#180,#171,#57,.T.);
#237=EDGE_CURVE('',#170,#166,#58,.T.);
#238=ORIENTED_EDGE('',*,*,#190,.F.);
#239=ORIENTED_EDGE('',*,*,#191,.F.);
#240=ORIENTED_EDGE('',*,*,#192,.F.);
#241=ORIENTED_EDGE('',*,*,#193,.T.);
#242=ORIENTED_EDGE('',*,*,#194,.T.);
#243=ORIENTED_EDGE('',*,*,#191,.T.);
#244=ORIENTED_EDGE('',*,*,#195,.T.);
#245=ORIENTED_EDGE('',*,*,#196,.F.);
#246=ORIENTED_EDGE('',*,*,#197,.F.);
#247=ORIENTED_EDGE('',*,*,#198,.F.);
#248=ORIENTED_EDGE('',*,*,#199,.T.);
#249=ORIENTED_EDGE('',*,*,#200,.T.);
#250=ORIENTED_EDGE('',*,*,#197,.T.);
#251=ORIENTED_EDGE('',*,*,#201,.T.);
#252=ORIENTED_EDGE('',*,*,#202,.F.);
#253=ORIENTED_EDGE('',*,*,#203,.F.);
#254=ORIENTED_EDGE('',*,*,#204,.F.);
#255=ORIENTED_EDGE('',*,*,#205,.T.);
#256=ORIENTED_EDGE('',*,*,#206,.T.);
#257=ORIENTED_EDGE('',*,*,#203,.T.);
#258=ORIENTED_EDGE('',*,*,#207,.T.);
#259=ORIENTED_EDGE('',*,*,#190,.T.);
#260=ORIENTED_EDGE('',*,*,#208,.T.);
#261=ORIENTED_EDGE('',*,*,#204,.T.);
#262=ORIENTED_EDGE('',*,*,#209,.T.);
#263=ORIENTED_EDGE('',*,*,#210,.F.);
#264=ORIENTED_EDGE('',*,*,#211,.F.);
#265=ORIENTED_EDGE('',*,*,#212,.F.);
#266=ORIENTED_EDGE('',*,*,#213,.T.);
#267=ORIENTED_EDGE('',*,*,#214,.T.);
#268=ORIENTED_EDGE('',*,*,#211,.T.);
#269=ORIENTED_EDGE('',*,*,#215,.T.);
#270=ORIENTED_EDGE('',*,*,#202,.T.);
#271=ORIENTED_EDGE('',*,*,#216,.T.);
#272=ORIENTED_EDGE('',*,*,#212,.T.);
#273=ORIENTED_EDGE('',*,*,#217,.T.);
#274=ORIENTED_EDGE('',*,*,#210,.T.);
#275=ORIENTED_EDGE('',*,*,#218,.T.);
#276=ORIENTED_EDGE('',*,*,#198,.T.);
#277=ORIENTED_EDGE('',*,*,#219,.T.);
#278=ORIENTED_EDGE('',*,*,#196,.T.);
#279=ORIENTED_EDGE('',*,*,#220,.T.);
#280=ORIENTED_EDGE('',*,*,#192,.T.);
#281=ORIENTED_EDGE('',*,*,#221,.T.);
#282=ORIENTED_EDGE('',*,*,#195,.F.);
#283=ORIENTED_EDGE('',*,*,#209,.F.);
#284=ORIENTED_EDGE('',*,*,#206,.F.);
#285=ORIENTED_EDGE('',*,*,#222,.F.);
#286=ORIENTED_EDGE('',*,*,#207,.F.);
#287=ORIENTED_EDGE('',*,*,#217,.F.);
#288=ORIENTED_EDGE('',*,*,#214,.F.);
#289=ORIENTED_EDGE('',*,*,#223,.F.);
#290=ORIENTED_EDGE('',*,*,#208,.F.);
#291=ORIENTED_EDGE('',*,*,#220,.F.);
#292=ORIENTED_EDGE('',*,*,#218,.F.);
#293=ORIENTED_EDGE('',*,*,#216,.F.);
#294=ORIENTED_EDGE('',*,*,#224,.T.);
#295=ORIENTED_EDGE('',*,*,#225,.T.);
#296=ORIENTED_EDGE('',*,*,#226,.T.);
#297=ORIENTED_EDGE('',*,*,#227,.T.);
#298=ORIENTED_EDGE('',*,*,#228,.T.);
#299=ORIENTED_EDGE('',*,*,#229,.T.);
#300=ORIENTED_EDGE('',*,*,#224,.F.);
#301=ORIENTED_EDGE('',*,*,#230,.F.);
#302=ORIENTED_EDGE('',*,*,#231,.T.);
#303=ORIENTED_EDGE('',*,*,#230,.T.);
#304=ORIENTED_EDGE('',*,*,#227,.F.);
#305=ORIENTED_EDGE('',*,*,#232,.F.);
#306=ORIENTED_EDGE('',*,*,#233,.T.);
#307=ORIENTED_EDGE('',*,*,#232,.T.);
#308=ORIENTED_EDGE('',*,*,#226,.F.);
#309=ORIENTED_EDGE('',*,*,#234,.F.);
#310=ORIENTED_EDGE('',*,*,#235,.T.);
#311=ORIENTED_EDGE('',*,*,#234,.T.);
#312=ORIENTED_EDGE('',*,*,#225,.F.);
#313=ORIENTED_EDGE('',*,*,#229,.F.);
#314=ORIENTED_EDGE('',*,*,#200,.F.);
#315=ORIENTED_EDGE('',*,*,#236,.F.);
#316=ORIENTED_EDGE('',*,*,#215,.F.);
#317=ORIENTED_EDGE('',*,*,#219,.F.);
#318=ORIENTED_EDGE('',*,*,#194,.F.);
#319=ORIENTED_EDGE('',*,*,#237,.F.);
#320=ORIENTED_EDGE('',*,*,#201,.F.);
#321=ORIENTED_EDGE('',*,*,#221,.F.);
#322=ORIENTED_EDGE('',*,*,#193,.F.);
#323=ORIENTED_EDGE('',*,*,#222,.T.);
#324=ORIENTED_EDGE('',*,*,#205,.F.);
#325=ORIENTED_EDGE('',*,*,#223,.T.);
#326=ORIENTED_EDGE('',*,*,#213,.F.);
#327=ORIENTED_EDGE('',*,*,#236,.T.);
#328=ORIENTED_EDGE('',*,*,#199,.F.);
#329=ORIENTED_EDGE('',*,*,#237,.T.);
#330=ORIENTED_EDGE('',*,*,#235,.F.);
#331=ORIENTED_EDGE('',*,*,#228,.F.);
#332=ORIENTED_EDGE('',*,*,#231,.F.);
#333=ORIENTED_EDGE('',*,*,#233,.F.);
#334=SPHERICAL_SURFACE('',#363,1.99999999999999);
#335=SPHERICAL_SURFACE('',#369,1.99999999999999);
#336=SPHERICAL_SURFACE('',#375,1.99999999999999);
#337=SPHERICAL_SURFACE('',#382,2.);
#338=ADVANCED_FACE('',(#99),#334,.T.);
#339=ADVANCED_FACE('',(#100),#91,.T.);
#340=ADVANCED_FACE('',(#101),#335,.T.);
#341=ADVANCED_FACE('',(#102),#92,.T.);
#342=ADVANCED_FACE('',(#103),#336,.T.);
#343=ADVANCED_FACE('',(#104),#93,.T.);
#344=ADVANCED_FACE('',(#105),#94,.T.);
#345=ADVANCED_FACE('',(#106),#337,.T.);
#346=ADVANCED_FACE('',(#107),#95,.T.);
#347=ADVANCED_FACE('',(#108),#96,.T.);
#348=ADVANCED_FACE('',(#109),#97,.T.);
#349=ADVANCED_FACE('',(#110),#98,.T.);
#350=ADVANCED_FACE('',(#111),#16,.T.);
#351=ADVANCED_FACE('',(#112),#17,.T.);
#352=ADVANCED_FACE('',(#113),#18,.T.);
#353=ADVANCED_FACE('',(#114),#19,.F.);
#354=ADVANCED_FACE('',(#115),#20,.T.);
#355=ADVANCED_FACE('',(#116),#21,.T.);
#356=ADVANCED_FACE('',(#117),#22,.T.);
#357=ADVANCED_FACE('',(#118),#23,.T.);
#358=ADVANCED_FACE('',(#119),#24,.T.);
#359=ADVANCED_FACE('',(#120),#25,.T.);
#360=ADVANCED_FACE('',(#121,#15),#26,.F.);
#361=CLOSED_SHELL('',(#338,#339,#340,#341,#342,#343,#344,#345,#346,#347,
#348,#349,#350,#351,#352,#353,#354,#355,#356,#357,#358,#359,#360));
#362=AXIS2_PLACEMENT_3D('',#514,#402,#403);
#363=AXIS2_PLACEMENT_3D('',#515,#404,#405);
#364=AXIS2_PLACEMENT_3D('',#518,#406,#407);
#365=AXIS2_PLACEMENT_3D('',#520,#408,#409);
#366=AXIS2_PLACEMENT_3D('',#521,#410,#411);
#367=AXIS2_PLACEMENT_3D('',#522,#412,#413);
#368=AXIS2_PLACEMENT_3D('',#525,#414,#415);
#369=AXIS2_PLACEMENT_3D('',#528,#418,#419);
#370=AXIS2_PLACEMENT_3D('',#531,#420,#421);
#371=AXIS2_PLACEMENT_3D('',#533,#422,#423);
#372=AXIS2_PLACEMENT_3D('',#534,#424,#425);
#373=AXIS2_PLACEMENT_3D('',#535,#426,#427);
#374=AXIS2_PLACEMENT_3D('',#538,#428,#429);
#375=AXIS2_PLACEMENT_3D('',#541,#432,#433);
#376=AXIS2_PLACEMENT_3D('',#544,#434,#435);
#377=AXIS2_PLACEMENT_3D('',#546,#436,#437);
#378=AXIS2_PLACEMENT_3D('',#547,#438,#439);
#379=AXIS2_PLACEMENT_3D('',#548,#440,#441);
#380=AXIS2_PLACEMENT_3D('',#551,#442,#443);
#381=AXIS2_PLACEMENT_3D('',#554,#446,#447);
#382=AXIS2_PLACEMENT_3D('',#557,#450,#451);
#383=AXIS2_PLACEMENT_3D('',#560,#452,#453);
#384=AXIS2_PLACEMENT_3D('',#562,#454,#455);
#385=AXIS2_PLACEMENT_3D('',#563,#456,#457);
#386=AXIS2_PLACEMENT_3D('',#564,#458,#459);
#387=AXIS2_PLACEMENT_3D('',#567,#460,#461);
#388=AXIS2_PLACEMENT_3D('',#570,#464,#465);
#389=AXIS2_PLACEMENT_3D('',#573,#468,#469);
#390=AXIS2_PLACEMENT_3D('',#576,#472,#473);
#391=AXIS2_PLACEMENT_3D('',#579,#476,#477);
#392=AXIS2_PLACEMENT_3D('',#581,#479,#480);
#393=AXIS2_PLACEMENT_3D('',#583,#482,#483);
#394=AXIS2_PLACEMENT_3D('',#584,#484,#485);
#395=AXIS2_PLACEMENT_3D('',#593,#490,#491);
#396=AXIS2_PLACEMENT_3D('',#599,#495,#496);
#397=AXIS2_PLACEMENT_3D('',#603,#499,#500);
#398=AXIS2_PLACEMENT_3D('',#607,#503,#504);
#399=AXIS2_PLACEMENT_3D('',#609,#506,#507);
#400=AXIS2_PLACEMENT_3D('',#611,#509,#510);
#401=AXIS2_PLACEMENT_3D('',#613,#512,#513);
#402=DIRECTION('axis',(0.,0.,1.));
#403=DIRECTION('refdir',(1.,0.,0.));
#404=DIRECTION('center_axis',(-0.408248290463862,-0.408248290463855,-0.816496580927731));
#405=DIRECTION('ref_axis',(-0.577350269189639,-0.577350269189618,0.577350269189621));
#406=DIRECTION('center_axis',(0.,-1.,0.));
#407=DIRECTION('ref_axis',(-1.,0.,0.));
#408=DIRECTION('center_axis',(0.,0.,1.));
#409=DIRECTION('ref_axis',(0.,-1.,0.));
#410=DIRECTION('center_axis',(-1.,-1.77635683940026E-14,0.));
#411=DIRECTION('ref_axis',(0.,0.,1.));
#412=DIRECTION('center_axis',(0.,0.,1.));
#413=DIRECTION('ref_axis',(-0.707106781186554,-0.707106781186541,0.));
#414=DIRECTION('center_axis',(0.,0.,1.));
#415=DIRECTION('ref_axis',(-0.707106781186554,-0.707106781186541,0.));
#416=DIRECTION('',(0.,0.,1.));
#417=DIRECTION('',(0.,0.,-1.));
#418=DIRECTION('center_axis',(-0.40824829046386,-0.816496580927728,-0.408248290463862));
#419=DIRECTION('ref_axis',(0.577350269189625,-0.577350269189625,0.577350269189628));
#420=DIRECTION('center_axis',(1.,0.,0.));
#421=DIRECTION('ref_axis',(0.,-1.,0.));
#422=DIRECTION('center_axis',(0.,0.,1.));
#423=DIRECTION('ref_axis',(1.,0.,0.));
#424=DIRECTION('center_axis',(0.,-1.,0.));
#425=DIRECTION('ref_axis',(0.,0.,1.));
#426=DIRECTION('center_axis',(0.,0.,1.));
#427=DIRECTION('ref_axis',(0.707106781186554,-0.707106781186541,0.));
#428=DIRECTION('center_axis',(0.,0.,1.));
#429=DIRECTION('ref_axis',(0.707106781186554,-0.707106781186541,0.));
#430=DIRECTION('',(0.,0.,1.));
#431=DIRECTION('',(0.,0.,-1.));
#432=DIRECTION('center_axis',(-0.40824829046386,-0.816496580927728,0.408248290463862));
#433=DIRECTION('ref_axis',(-0.577350269189625,0.577350269189625,0.577350269189628));
#434=DIRECTION('center_axis',(-1.,0.,0.));
#435=DIRECTION('ref_axis',(0.,1.,0.));
#436=DIRECTION('center_axis',(0.,0.,1.));
#437=DIRECTION('ref_axis',(-1.,0.,0.));
#438=DIRECTION('center_axis',(4.44089209850064E-15,1.,0.));
#439=DIRECTION('ref_axis',(0.,0.,1.));
#440=DIRECTION('center_axis',(0.,0.,1.));
#441=DIRECTION('ref_axis',(-0.707106781186541,0.707106781186554,0.));
#442=DIRECTION('center_axis',(0.,0.,1.));
#443=DIRECTION('ref_axis',(-0.707106781186541,0.707106781186554,0.));
#444=DIRECTION('',(0.,0.,1.));
#445=DIRECTION('',(0.,0.,-1.));
#446=DIRECTION('center_axis',(0.,-1.,0.));
#447=DIRECTION('ref_axis',(-0.70710678118654,0.,0.707106781186555));
#448=DIRECTION('',(0.,1.,0.));
#449=DIRECTION('',(0.,-1.,0.));
#450=DIRECTION('center_axis',(0.40824829046386,-0.816496580927727,0.408248290463865));
#451=DIRECTION('ref_axis',(0.577350269189622,0.577350269189629,0.577350269189627));
#452=DIRECTION('center_axis',(0.,1.,0.));
#453=DIRECTION('ref_axis',(1.,0.,0.));
#454=DIRECTION('center_axis',(0.,0.,1.));
#455=DIRECTION('ref_axis',(0.,1.,0.));
#456=DIRECTION('center_axis',(1.,0.,0.));
#457=DIRECTION('ref_axis',(0.,0.,1.));
#458=DIRECTION('center_axis',(0.,0.,1.));
#459=DIRECTION('ref_axis',(0.707106781186551,0.707106781186544,0.));
#460=DIRECTION('center_axis',(0.,0.,1.));
#461=DIRECTION('ref_axis',(0.707106781186551,0.707106781186544,0.));
#462=DIRECTION('',(0.,0.,1.));
#463=DIRECTION('',(0.,0.,-1.));
#464=DIRECTION('center_axis',(-1.,0.,0.));
#465=DIRECTION('ref_axis',(0.,0.707106781186549,0.707106781186546));
#466=DIRECTION('',(1.,0.,0.));
#467=DIRECTION('',(-1.,0.,0.));
#468=DIRECTION('center_axis',(0.,1.,0.));
#469=DIRECTION('ref_axis',(0.707106781186552,0.,0.707106781186543));
#470=DIRECTION('',(0.,-1.,0.));
#471=DIRECTION('',(0.,1.,0.));
#472=DIRECTION('center_axis',(1.,0.,0.));
#473=DIRECTION('ref_axis',(0.,-0.707106781186546,0.707106781186549));
#474=DIRECTION('',(-1.,0.,0.));
#475=DIRECTION('',(1.,0.,0.));
#476=DIRECTION('center_axis',(-1.,0.,0.));
#477=DIRECTION('ref_axis',(0.,-1.,0.));
#478=DIRECTION('',(0.,1.,0.));
#479=DIRECTION('center_axis',(0.,1.,0.));
#480=DIRECTION('ref_axis',(-1.,0.,0.));
#481=DIRECTION('',(1.,0.,0.));
#482=DIRECTION('center_axis',(0.,0.,1.));
#483=DIRECTION('ref_axis',(1.,0.,0.));
#484=DIRECTION('center_axis',(0.,0.,1.));
#485=DIRECTION('ref_axis',(-1.,0.,0.));
#486=DIRECTION('',(0.,-1.,0.));
#487=DIRECTION('',(-1.,0.,0.));
#488=DIRECTION('',(0.,1.,0.));
#489=DIRECTION('',(1.,0.,0.));
#490=DIRECTION('center_axis',(-1.,0.,0.));
#491=DIRECTION('ref_axis',(0.,-1.,0.));
#492=DIRECTION('',(0.,-1.,0.));
#493=DIRECTION('',(0.,0.,1.));
#494=DIRECTION('',(0.,0.,1.));
#495=DIRECTION('center_axis',(0.,-1.,0.));
#496=DIRECTION('ref_axis',(1.,0.,0.));
#497=DIRECTION('',(1.,0.,0.));
#498=DIRECTION('',(0.,0.,1.));
#499=DIRECTION('center_axis',(1.,0.,0.));
#500=DIRECTION('ref_axis',(0.,1.,0.));
#501=DIRECTION('',(0.,1.,0.));
#502=DIRECTION('',(0.,0.,1.));
#503=DIRECTION('center_axis',(0.,1.,0.));
#504=DIRECTION('ref_axis',(-1.,0.,0.));
#505=DIRECTION('',(-1.,0.,0.));
#506=DIRECTION('center_axis',(1.,0.,0.));
#507=DIRECTION('ref_axis',(0.,1.,0.));
#508=DIRECTION('',(0.,-1.,0.));
#509=DIRECTION('center_axis',(0.,-1.,0.));
#510=DIRECTION('ref_axis',(1.,0.,0.));
#511=DIRECTION('',(-1.,0.,0.));
#512=DIRECTION('center_axis',(0.,0.,1.));
#513=DIRECTION('ref_axis',(-1.,0.,0.));
#514=CARTESIAN_POINT('',(0.,0.,0.));
#515=CARTESIAN_POINT('Origin',(225.399699459085,-94.8059409033688,22.95));
#516=CARTESIAN_POINT('',(223.399699459085,-94.8059409033688,22.95));
#517=CARTESIAN_POINT('',(225.399699459085,-94.8059409033688,24.95));
#518=CARTESIAN_POINT('Origin',(225.399699459085,-94.8059409033688,22.95));
#519=CARTESIAN_POINT('',(225.399699459085,-96.8059409033688,22.95));
#520=CARTESIAN_POINT('Origin',(225.399699459085,-94.8059409033688,22.95));
#521=CARTESIAN_POINT('Origin',(225.399699459085,-94.8059409033688,22.95));
#522=CARTESIAN_POINT('Origin',(225.399699459085,-94.8059409033688,16.95));
#523=CARTESIAN_POINT('',(223.399699459085,-94.8059409033688,16.95));
#524=CARTESIAN_POINT('',(225.399699459085,-96.8059409033688,16.95));
#525=CARTESIAN_POINT('Origin',(225.399699459085,-94.8059409033688,16.95));
#526=CARTESIAN_POINT('',(225.399699459085,-96.8059409033688,16.95));
#527=CARTESIAN_POINT('',(223.399699459085,-94.8059409033688,16.95));
#528=CARTESIAN_POINT('Origin',(228.354062730063,-94.8059409033688,22.95));
#529=CARTESIAN_POINT('',(228.354062730063,-96.8059409033688,22.95));
#530=CARTESIAN_POINT('',(228.354062730063,-94.8059409033688,24.95));
#531=CARTESIAN_POINT('Origin',(228.354062730063,-94.8059409033688,22.95));
#532=CARTESIAN_POINT('',(230.354062730063,-94.8059409033688,22.95));
#533=CARTESIAN_POINT('Origin',(228.354062730063,-94.8059409033688,22.95));
#534=CARTESIAN_POINT('Origin',(228.354062730063,-94.8059409033688,22.95));
#535=CARTESIAN_POINT('Origin',(228.354062730063,-94.8059409033688,16.95));
#536=CARTESIAN_POINT('',(228.354062730063,-96.8059409033688,16.95));
#537=CARTESIAN_POINT('',(230.354062730063,-94.8059409033688,16.95));
#538=CARTESIAN_POINT('Origin',(228.354062730063,-94.8059409033688,16.95));
#539=CARTESIAN_POINT('',(230.354062730063,-94.8059409033688,16.95));
#540=CARTESIAN_POINT('',(228.354062730063,-96.8059409033688,16.95));
#541=CARTESIAN_POINT('Origin',(225.399699459085,-92.7293128025143,22.95));
#542=CARTESIAN_POINT('',(225.399699459085,-90.7293128025143,22.95));
#543=CARTESIAN_POINT('',(225.399699459085,-92.7293128025143,24.95));
#544=CARTESIAN_POINT('Origin',(225.399699459085,-92.7293128025143,22.95));
#545=CARTESIAN_POINT('',(223.399699459085,-92.7293128025143,22.95));
#546=CARTESIAN_POINT('Origin',(225.399699459085,-92.7293128025143,22.95));
#547=CARTESIAN_POINT('Origin',(225.399699459085,-92.7293128025143,22.95));
#548=CARTESIAN_POINT('Origin',(225.399699459085,-92.7293128025143,16.95));
#549=CARTESIAN_POINT('',(225.399699459085,-90.7293128025143,16.95));
#550=CARTESIAN_POINT('',(223.399699459085,-92.7293128025143,16.95));
#551=CARTESIAN_POINT('Origin',(225.399699459085,-92.7293128025143,16.95));
#552=CARTESIAN_POINT('',(223.399699459085,-92.7293128025143,16.95));
#553=CARTESIAN_POINT('',(225.399699459085,-90.7293128025143,16.95));
#554=CARTESIAN_POINT('Origin',(225.399699459085,-92.248469827728,22.95));
#555=CARTESIAN_POINT('',(225.399699459085,-92.248469827728,24.95));
#556=CARTESIAN_POINT('',(223.399699459085,-92.248469827728,22.95));
#557=CARTESIAN_POINT('Origin',(228.354062730063,-92.7293128025143,22.95));
#558=CARTESIAN_POINT('',(230.354062730063,-92.7293128025143,22.95));
#559=CARTESIAN_POINT('',(228.354062730063,-92.7293128025143,24.95));
#560=CARTESIAN_POINT('Origin',(228.354062730063,-92.7293128025143,22.95));
#561=CARTESIAN_POINT('',(228.354062730063,-90.7293128025143,22.95));
#562=CARTESIAN_POINT('Origin',(228.354062730063,-92.7293128025143,22.95));
#563=CARTESIAN_POINT('Origin',(228.354062730063,-92.7293128025143,22.95));
#564=CARTESIAN_POINT('Origin',(228.354062730063,-92.7293128025143,16.95));
#565=CARTESIAN_POINT('',(230.354062730063,-92.7293128025143,16.95));
#566=CARTESIAN_POINT('',(228.354062730063,-90.7293128025143,16.95));
#567=CARTESIAN_POINT('Origin',(228.354062730063,-92.7293128025143,16.95));
#568=CARTESIAN_POINT('',(228.354062730063,-90.7293128025143,16.95));
#569=CARTESIAN_POINT('',(230.354062730063,-92.7293128025143,16.95));
#570=CARTESIAN_POINT('Origin',(228.615471912318,-92.7293128025143,22.95));
#571=CARTESIAN_POINT('',(228.615471912318,-92.7293128025143,24.95));
#572=CARTESIAN_POINT('',(228.615471912318,-90.7293128025143,22.95));
#573=CARTESIAN_POINT('Origin',(228.354062730063,-95.2867838781552,22.95));
#574=CARTESIAN_POINT('',(228.354062730063,-95.2867838781552,24.95));
#575=CARTESIAN_POINT('',(230.354062730063,-95.2867838781552,22.95));
#576=CARTESIAN_POINT('Origin',(225.138290276829,-94.8059409033688,22.95));
#577=CARTESIAN_POINT('',(225.138290276829,-94.8059409033688,24.95));
#578=CARTESIAN_POINT('',(225.138290276829,-96.8059409033688,22.95));
#579=CARTESIAN_POINT('Origin',(223.399699459085,-90.7293128025143,16.95));
#580=CARTESIAN_POINT('',(223.399699459085,-96.8059409033688,16.95));
#581=CARTESIAN_POINT('Origin',(230.354062730063,-90.7293128025143,16.95));
#582=CARTESIAN_POINT('',(223.399699459085,-90.7293128025143,16.95));
#583=CARTESIAN_POINT('Origin',(226.876881094574,-93.7676268529416,24.95));
#584=CARTESIAN_POINT('Origin',(226.876881094574,-93.7676268529416,21.95));
#585=CARTESIAN_POINT('',(229.206255199902,-92.4847831427612,21.95));
#586=CARTESIAN_POINT('',(229.206255199902,-95.3205429231599,21.95));
#587=CARTESIAN_POINT('',(229.206255199902,-92.4847831427612,21.95));
#588=CARTESIAN_POINT('',(224.682543169265,-95.3205429231599,21.95));
#589=CARTESIAN_POINT('',(229.206255199902,-95.3205429231599,21.95));
#590=CARTESIAN_POINT('',(224.682543169265,-92.4847831427612,21.95));
#591=CARTESIAN_POINT('',(224.682543169265,-95.3205429231599,21.95));
#592=CARTESIAN_POINT('',(224.682543169265,-92.4847831427612,21.95));
#593=CARTESIAN_POINT('Origin',(229.206255199902,-92.4847831427612,16.95));
#594=CARTESIAN_POINT('',(229.206255199902,-92.4847831427612,16.95));
#595=CARTESIAN_POINT('',(229.206255199902,-95.3205429231599,16.95));
#596=CARTESIAN_POINT('',(229.206255199902,-92.4847831427612,16.95));
#597=CARTESIAN_POINT('',(229.206255199902,-95.3205429231599,16.95));
#598=CARTESIAN_POINT('',(229.206255199902,-92.4847831427612,16.95));
#599=CARTESIAN_POINT('Origin',(224.682543169265,-92.4847831427612,16.95));
#600=CARTESIAN_POINT('',(224.682543169265,-92.4847831427612,16.95));
#601=CARTESIAN_POINT('',(224.682543169265,-92.4847831427612,16.95));
#602=CARTESIAN_POINT('',(224.682543169265,-92.4847831427612,16.95));
#603=CARTESIAN_POINT('Origin',(224.682543169265,-95.3205429231599,16.95));
#604=CARTESIAN_POINT('',(224.682543169265,-95.3205429231599,16.95));
#605=CARTESIAN_POINT('',(224.682543169265,-95.3205429231599,16.95));
#606=CARTESIAN_POINT('',(224.682543169265,-95.3205429231599,16.95));
#607=CARTESIAN_POINT('Origin',(229.206255199902,-95.3205429231599,16.95));
#608=CARTESIAN_POINT('',(229.206255199902,-95.3205429231599,16.95));
#609=CARTESIAN_POINT('Origin',(230.354062730063,-96.8059409033688,16.95));
#610=CARTESIAN_POINT('',(230.354062730063,-90.7293128025143,16.95));
#611=CARTESIAN_POINT('Origin',(223.399699459085,-96.8059409033688,16.95));
#612=CARTESIAN_POINT('',(230.354062730063,-96.8059409033688,16.95));
#613=CARTESIAN_POINT('Origin',(226.876881094574,-93.7676268529416,16.95));
#614=UNCERTAINTY_MEASURE_WITH_UNIT(LENGTH_MEASURE(0.01),#618,
'DISTANCE_ACCURACY_VALUE',
'Maximum model space distance between geometric entities at asserted c
onnectivities');
#615=UNCERTAINTY_MEASURE_WITH_UNIT(LENGTH_MEASURE(0.01),#618,
'DISTANCE_ACCURACY_VALUE',
'Maximum model space distance between geometric entities at asserted c
onnectivities');
#616=(
GEOMETRIC_REPRESENTATION_CONTEXT(3)
GLOBAL_UNCERTAINTY_ASSIGNED_CONTEXT((#614))
GLOBAL_UNIT_ASSIGNED_CONTEXT((#618,#619,#620))
REPRESENTATION_CONTEXT('','3D')
);
#617=(
GEOMETRIC_REPRESENTATION_CONTEXT(3)
GLOBAL_UNCERTAINTY_ASSIGNED_CONTEXT((#615))
GLOBAL_UNIT_ASSIGNED_CONTEXT((#618,#619,#620))
REPRESENTATION_CONTEXT('','3D')
);
#618=(
LENGTH_UNIT()
NAMED_UNIT(*)
SI_UNIT(.MILLI.,.METRE.)
);
#619=(
NAMED_UNIT(*)
PLANE_ANGLE_UNIT()
SI_UNIT($,.RADIAN.)
);
#620=(
NAMED_UNIT(*)
SI_UNIT($,.STERADIAN.)
SOLID_ANGLE_UNIT()
);
#621=SHAPE_DEFINITION_REPRESENTATION(#622,#623);
#622=PRODUCT_DEFINITION_SHAPE('',$,#625);
#623=SHAPE_REPRESENTATION('',(#362),#616);
#624=PRODUCT_DEFINITION_CONTEXT('part definition',#629,'design');
#625=PRODUCT_DEFINITION('Final assembly','Final assembly',#626,#624);
#626=PRODUCT_DEFINITION_FORMATION('',$,#631);
#627=PRODUCT_RELATED_PRODUCT_CATEGORY('Final assembly','Final assembly',
(#631));
#628=APPLICATION_PROTOCOL_DEFINITION('international standard',
'automotive_design',2009,#629);
#629=APPLICATION_CONTEXT(
'Core Data for Automotive Mechanical Design Process');
#630=PRODUCT_CONTEXT('part definition',#629,'mechanical');
#631=PRODUCT('Final assembly','Final assembly',$,(#630));
#632=PRESENTATION_STYLE_ASSIGNMENT((#634));
#633=PRESENTATION_STYLE_ASSIGNMENT((#635));
#634=SURFACE_STYLE_USAGE(.BOTH.,#636);
#635=SURFACE_STYLE_USAGE(.BOTH.,#637);
#636=SURFACE_SIDE_STYLE('',(#638));
#637=SURFACE_SIDE_STYLE('',(#639));
#638=SURFACE_STYLE_FILL_AREA(#640);
#639=SURFACE_STYLE_FILL_AREA(#641);
#640=FILL_AREA_STYLE('Steel - Satin',(#642));
#641=FILL_AREA_STYLE('Brass - Polished',(#643));
#642=FILL_AREA_STYLE_COLOUR('Steel - Satin',#644);
#643=FILL_AREA_STYLE_COLOUR('Brass - Polished',#645);
#644=COLOUR_RGB('Steel - Satin',0.627450980392157,0.627450980392157,0.627450980392157);
#645=COLOUR_RGB('Brass - Polished',0.952941176470588,0.796078431372549,
0.486274509803922);
ENDSEC;
END-ISO-10303-21;
