ISO-10303-21;
HEADER;
/* Generated by software containing ST-Developer
 * from STEP Tools, Inc. (www.steptools.com) 
 */

FILE_DESCRIPTION(
/* description */ (''),
/* implementation_level */ '2;1');

FILE_NAME(
/* name */ 'Body 3 of macropad v2.step',
/* time_stamp */ '2026-04-26T17:07:11+10:00',
/* author */ (''),
/* organization */ (''),
/* preprocessor_version */ 'ST-DEVELOPER v20.1',
/* originating_system */ 'Autodesk Translation Framework v15.8.0.0',
/* authorisation */ '');

FILE_SCHEMA (('AUTOMOTIVE_DESIGN { 1 0 10303 214 3 1 1 }'));
ENDSEC;

DATA;
#10=MECHANICAL_DESIGN_GEOMETRIC_PRESENTATION_REPRESENTATION('',(#13),#152);
#11=SHAPE_REPRESENTATION_RELATIONSHIP('SRR','None',#158,#12);
#12=ADVANCED_BREP_SHAPE_REPRESENTATION('',(#14),#151);
#13=STYLED_ITEM('',(#167),#14);
#14=MANIFOLD_SOLID_BREP('Body9',#88);
#15=CYLINDRICAL_SURFACE('',#98,4.59272271476085);
#16=CYLINDRICAL_SURFACE('',#99,9.7700863751701);
#17=FACE_BOUND('',#27,.T.);
#18=FACE_OUTER_BOUND('',#24,.T.);
#19=FACE_OUTER_BOUND('',#25,.T.);
#20=FACE_OUTER_BOUND('',#26,.T.);
#21=FACE_OUTER_BOUND('',#28,.T.);
#22=FACE_OUTER_BOUND('',#29,.T.);
#23=FACE_OUTER_BOUND('',#30,.T.);
#24=EDGE_LOOP('',(#60,#61));
#25=EDGE_LOOP('',(#62));
#26=EDGE_LOOP('',(#63));
#27=EDGE_LOOP('',(#64,#65));
#28=EDGE_LOOP('',(#66,#67,#68,#69));
#29=EDGE_LOOP('',(#70,#71,#72,#73));
#30=EDGE_LOOP('',(#74,#75,#76,#77));
#31=CIRCLE('',#91,4.59272271476085);
#32=CIRCLE('',#93,9.7700863751701);
#33=CIRCLE('',#95,9.7700863751701);
#34=CIRCLE('',#96,4.59272271476085);
#35=LINE('',#131,#40);
#36=LINE('',#141,#41);
#37=LINE('',#144,#42);
#38=LINE('',#145,#43);
#39=LINE('',#148,#44);
#40=VECTOR('',#104,10.);
#41=VECTOR('',#115,10.);
#42=VECTOR('',#120,10.);
#43=VECTOR('',#121,10.);
#44=VECTOR('',#126,9.7700863751701);
#45=VERTEX_POINT('',#129);
#46=VERTEX_POINT('',#130);
#47=VERTEX_POINT('',#134);
#48=VERTEX_POINT('',#137);
#49=VERTEX_POINT('',#139);
#50=VERTEX_POINT('',#140);
#51=EDGE_CURVE('',#45,#46,#35,.T.);
#52=EDGE_CURVE('',#46,#45,#31,.T.);
#53=EDGE_CURVE('',#47,#47,#32,.T.);
#54=EDGE_CURVE('',#48,#48,#33,.T.);
#55=EDGE_CURVE('',#49,#50,#36,.T.);
#56=EDGE_CURVE('',#50,#49,#34,.T.);
#57=EDGE_CURVE('',#50,#46,#37,.T.);
#58=EDGE_CURVE('',#49,#45,#38,.T.);
#59=EDGE_CURVE('',#47,#48,#39,.T.);
#60=ORIENTED_EDGE('',*,*,#51,.T.);
#61=ORIENTED_EDGE('',*,*,#52,.T.);
#62=ORIENTED_EDGE('',*,*,#53,.T.);
#63=ORIENTED_EDGE('',*,*,#54,.F.);
#64=ORIENTED_EDGE('',*,*,#55,.F.);
#65=ORIENTED_EDGE('',*,*,#56,.F.);
#66=ORIENTED_EDGE('',*,*,#55,.T.);
#67=ORIENTED_EDGE('',*,*,#57,.T.);
#68=ORIENTED_EDGE('',*,*,#51,.F.);
#69=ORIENTED_EDGE('',*,*,#58,.F.);
#70=ORIENTED_EDGE('',*,*,#56,.T.);
#71=ORIENTED_EDGE('',*,*,#58,.T.);
#72=ORIENTED_EDGE('',*,*,#52,.F.);
#73=ORIENTED_EDGE('',*,*,#57,.F.);
#74=ORIENTED_EDGE('',*,*,#53,.F.);
#75=ORIENTED_EDGE('',*,*,#59,.T.);
#76=ORIENTED_EDGE('',*,*,#54,.T.);
#77=ORIENTED_EDGE('',*,*,#59,.F.);
#78=PLANE('',#90);
#79=PLANE('',#92);
#80=PLANE('',#94);
#81=PLANE('',#97);
#82=ADVANCED_FACE('',(#18),#78,.F.);
#83=ADVANCED_FACE('',(#19),#79,.T.);
#84=ADVANCED_FACE('',(#20,#17),#80,.F.);
#85=ADVANCED_FACE('',(#21),#81,.T.);
#86=ADVANCED_FACE('',(#22),#15,.F.);
#87=ADVANCED_FACE('',(#23),#16,.T.);
#88=CLOSED_SHELL('',(#82,#83,#84,#85,#86,#87));
#89=AXIS2_PLACEMENT_3D('',#127,#100,#101);
#90=AXIS2_PLACEMENT_3D('',#128,#102,#103);
#91=AXIS2_PLACEMENT_3D('',#132,#105,#106);
#92=AXIS2_PLACEMENT_3D('',#133,#107,#108);
#93=AXIS2_PLACEMENT_3D('',#135,#109,#110);
#94=AXIS2_PLACEMENT_3D('',#136,#111,#112);
#95=AXIS2_PLACEMENT_3D('',#138,#113,#114);
#96=AXIS2_PLACEMENT_3D('',#142,#116,#117);
#97=AXIS2_PLACEMENT_3D('',#143,#118,#119);
#98=AXIS2_PLACEMENT_3D('',#146,#122,#123);
#99=AXIS2_PLACEMENT_3D('',#147,#124,#125);
#100=DIRECTION('axis',(0.,0.,1.));
#101=DIRECTION('refdir',(1.,0.,0.));
#102=DIRECTION('center_axis',(0.,0.,1.));
#103=DIRECTION('ref_axis',(-1.,0.,0.));
#104=DIRECTION('',(1.,0.,0.));
#105=DIRECTION('center_axis',(0.,0.,-1.));
#106=DIRECTION('ref_axis',(-1.,0.,0.));
#107=DIRECTION('center_axis',(0.,0.,1.));
#108=DIRECTION('ref_axis',(-1.,0.,0.));
#109=DIRECTION('center_axis',(0.,0.,1.));
#110=DIRECTION('ref_axis',(-1.,0.,0.));
#111=DIRECTION('center_axis',(0.,0.,1.));
#112=DIRECTION('ref_axis',(-1.,0.,0.));
#113=DIRECTION('center_axis',(0.,0.,1.));
#114=DIRECTION('ref_axis',(-1.,0.,0.));
#115=DIRECTION('',(1.,0.,0.));
#116=DIRECTION('center_axis',(0.,0.,-1.));
#117=DIRECTION('ref_axis',(-1.,0.,0.));
#118=DIRECTION('center_axis',(0.,-1.,0.));
#119=DIRECTION('ref_axis',(1.,0.,0.));
#120=DIRECTION('',(0.,0.,1.));
#121=DIRECTION('',(0.,0.,1.));
#122=DIRECTION('center_axis',(0.,0.,1.));
#123=DIRECTION('ref_axis',(-1.83758917935762E-15,-1.,0.));
#124=DIRECTION('center_axis',(0.,0.,1.));
#125=DIRECTION('ref_axis',(-1.,0.,0.));
#126=DIRECTION('',(0.,0.,-1.));
#127=CARTESIAN_POINT('',(0.,0.,0.));
#128=CARTESIAN_POINT('Origin',(245.994839117493,-108.473053206087,27.95));
#129=CARTESIAN_POINT('',(241.84072728543,-106.514365680882,27.95));
#130=CARTESIAN_POINT('',(250.148950949556,-106.514365680882,27.95));
#131=CARTESIAN_POINT('',(250.148950949556,-106.514365680882,27.95));
#132=CARTESIAN_POINT('Origin',(245.994839117493,-108.473053206087,27.95));
#133=CARTESIAN_POINT('Origin',(245.994839117493,-108.473053206087,30.95));
#134=CARTESIAN_POINT('',(255.764925492663,-108.473053206087,30.95));
#135=CARTESIAN_POINT('Origin',(245.994839117493,-108.473053206087,30.95));
#136=CARTESIAN_POINT('Origin',(245.994839117493,-108.473053206087,17.95));
#137=CARTESIAN_POINT('',(255.764925492663,-108.473053206087,17.95));
#138=CARTESIAN_POINT('Origin',(245.994839117493,-108.473053206087,17.95));
#139=CARTESIAN_POINT('',(241.84072728543,-106.514365680882,17.95));
#140=CARTESIAN_POINT('',(250.148950949556,-106.514365680882,17.95));
#141=CARTESIAN_POINT('',(243.917783201462,-106.514365680882,17.95));
#142=CARTESIAN_POINT('Origin',(245.994839117493,-108.473053206087,17.95));
#143=CARTESIAN_POINT('Origin',(241.84072728543,-106.514365680882,16.95));
#144=CARTESIAN_POINT('',(250.148950949556,-106.514365680882,16.95));
#145=CARTESIAN_POINT('',(241.84072728543,-106.514365680882,16.95));
#146=CARTESIAN_POINT('Origin',(245.994839117493,-108.473053206087,16.95));
#147=CARTESIAN_POINT('Origin',(245.994839117493,-108.473053206087,16.95));
#148=CARTESIAN_POINT('',(255.764925492663,-108.473053206087,16.95));
#149=UNCERTAINTY_MEASURE_WITH_UNIT(LENGTH_MEASURE(0.01),#153,
'DISTANCE_ACCURACY_VALUE',
'Maximum model space distance between geometric entities at asserted c
onnectivities');
#150=UNCERTAINTY_MEASURE_WITH_UNIT(LENGTH_MEASURE(0.01),#153,
'DISTANCE_ACCURACY_VALUE',
'Maximum model space distance between geometric entities at asserted c
onnectivities');
#151=(
GEOMETRIC_REPRESENTATION_CONTEXT(3)
GLOBAL_UNCERTAINTY_ASSIGNED_CONTEXT((#149))
GLOBAL_UNIT_ASSIGNED_CONTEXT((#153,#154,#155))
REPRESENTATION_CONTEXT('','3D')
);
#152=(
GEOMETRIC_REPRESENTATION_CONTEXT(3)
GLOBAL_UNCERTAINTY_ASSIGNED_CONTEXT((#150))
GLOBAL_UNIT_ASSIGNED_CONTEXT((#153,#154,#155))
REPRESENTATION_CONTEXT('','3D')
);
#153=(
LENGTH_UNIT()
NAMED_UNIT(*)
SI_UNIT(.MILLI.,.METRE.)
);
#154=(
NAMED_UNIT(*)
PLANE_ANGLE_UNIT()
SI_UNIT($,.RADIAN.)
);
#155=(
NAMED_UNIT(*)
SI_UNIT($,.STERADIAN.)
SOLID_ANGLE_UNIT()
);
#156=SHAPE_DEFINITION_REPRESENTATION(#157,#158);
#157=PRODUCT_DEFINITION_SHAPE('',$,#160);
#158=SHAPE_REPRESENTATION('',(#89),#151);
#159=PRODUCT_DEFINITION_CONTEXT('part definition',#164,'design');
#160=PRODUCT_DEFINITION('Final assembly','Final assembly',#161,#159);
#161=PRODUCT_DEFINITION_FORMATION('',$,#166);
#162=PRODUCT_RELATED_PRODUCT_CATEGORY('Final assembly','Final assembly',
(#166));
#163=APPLICATION_PROTOCOL_DEFINITION('international standard',
'automotive_design',2009,#164);
#164=APPLICATION_CONTEXT(
'Core Data for Automotive Mechanical Design Process');
#165=PRODUCT_CONTEXT('part definition',#164,'mechanical');
#166=PRODUCT('Final assembly','Final assembly',$,(#165));
#167=PRESENTATION_STYLE_ASSIGNMENT((#169));
#168=PRESENTATION_STYLE_ASSIGNMENT((#170));
#169=SURFACE_STYLE_USAGE(.BOTH.,#171);
#170=SURFACE_STYLE_USAGE(.BOTH.,#172);
#171=SURFACE_SIDE_STYLE('',(#173));
#172=SURFACE_SIDE_STYLE('',(#174));
#173=SURFACE_STYLE_FILL_AREA(#175);
#174=SURFACE_STYLE_FILL_AREA(#176);
#175=FILL_AREA_STYLE('Steel - Satin',(#177));
#176=FILL_AREA_STYLE('Brass - Polished',(#178));
#177=FILL_AREA_STYLE_COLOUR('Steel - Satin',#179);
#178=FILL_AREA_STYLE_COLOUR('Brass - Polished',#180);
#179=COLOUR_RGB('Steel - Satin',0.627450980392157,0.627450980392157,0.627450980392157);
#180=COLOUR_RGB('Brass - Polished',0.952941176470588,0.796078431372549,
0.486274509803922);
ENDSEC;
END-ISO-10303-21;
